<?xml version="1.0" encoding="UTF-8" standalone="no"?>
<!DOCTYPE svg PUBLIC "-//W3C//DTD SVG 1.1//EN"
 "http://www.w3.org/Graphics/SVG/1.1/DTD/svg11.dtd">
<!-- Generated by graphviz version 16.1.0 (20260904.0139)
 -->
<!-- Title: KienTrucTongThe Pages: 1 -->
<svg width="658pt" height="548pt"
 viewBox="0.00 0.00 658.00 548.00" xmlns="http://www.w3.org/2000/svg" xmlns:xlink="http://www.w3.org/1999/xlink">
<g id="graph0" class="graph" transform="scale(1 1) rotate(0) translate(4 543.98)">
<title>KienTrucTongThe</title>
<polygon fill="white" stroke="none" points="-4,4 -4,-543.98 653.96,-543.98 653.96,4 -4,4"/>
<text xml:space="preserve" text-anchor="middle" x="324.98" y="-516.98" font-family="Arial" font-size="20.00" fill="#111111">Sơ Đồ Kiến Trúc Tổng Thể Hệ Thống AetherPC ERP</text>
<g id="clust1" class="cluster">
<title>cluster_compose</title>
<polygon fill="white" stroke="#666666" stroke-dasharray="5,2" points="8,-102.28 8,-447.95 621,-447.95 621,-102.28 8,-102.28"/>
<text xml:space="preserve" text-anchor="middle" x="314.5" y="-431.6" font-family="Arial Bold" font-size="13.00" fill="#111111">Docker Compose (docker&#45;compose.yml)</text>
</g>
<g id="clust2" class="cluster">
<title>cluster_frontend</title>
<polygon fill="white" stroke="#888888" points="32,-290.92 32,-394.2 164,-394.2 164,-290.92 32,-290.92"/>
<text xml:space="preserve" text-anchor="middle" x="98" y="-379.75" font-family="Arial" font-size="11.00" fill="#111111">Container: frontend</text>
</g>
<g id="clust3" class="cluster">
<title>cluster_backend</title>
<polygon fill="white" stroke="#888888" points="379,-284.17 379,-400.95 597,-400.95 597,-284.17 379,-284.17"/>
<text xml:space="preserve" text-anchor="middle" x="488" y="-386.5" font-family="Arial" font-size="11.00" fill="#111111">Container: backend</text>
</g>
<g id="clust4" class="cluster">
<title>cluster_worker</title>
<polygon fill="white" stroke="#888888" points="189,-290.92 189,-394.2 353,-394.2 353,-290.92 189,-290.92"/>
<text xml:space="preserve" text-anchor="middle" x="271" y="-379.75" font-family="Arial" font-size="11.00" fill="#111111">Container: worker</text>
</g>
<g id="clust5" class="cluster">
<title>cluster_redis</title>
<polygon fill="white" stroke="#888888" points="264,-126.28 264,-232.67 364,-232.67 364,-126.28 264,-126.28"/>
<text xml:space="preserve" text-anchor="middle" x="314" y="-218.22" font-family="Arial" font-size="11.00" fill="#111111">Container: redis</text>
</g>
<g id="clust6" class="cluster">
<title>cluster_db</title>
<polygon fill="white" stroke="#888888" points="390,-126.28 390,-232.67 500,-232.67 500,-126.28 390,-126.28"/>
<text xml:space="preserve" text-anchor="middle" x="445" y="-218.22" font-family="Arial" font-size="11.00" fill="#111111">Container: db</text>
</g>
<!-- client -->
<g id="node1" class="node">
<title>client</title>
<path fill="#f5f5f5" stroke="#333333" d="M353.96,-508.73C353.96,-508.73 232.04,-508.73 232.04,-508.73 226.04,-508.73 220.04,-502.73 220.04,-496.73 220.04,-496.73 220.04,-476.45 220.04,-476.45 220.04,-470.45 226.04,-464.45 232.04,-464.45 232.04,-464.45 353.96,-464.45 353.96,-464.45 359.96,-464.45 365.96,-470.45 365.96,-476.45 365.96,-476.45 365.96,-496.73 365.96,-496.73 365.96,-502.73 359.96,-508.73 353.96,-508.73"/>
<text xml:space="preserve" text-anchor="middle" x="293" y="-489.64" font-family="Arial" font-size="11.00">Trình Duyệt Người Dùng</text>
<text xml:space="preserve" text-anchor="middle" x="293" y="-476.14" font-family="Arial" font-size="11.00">(Client &#45; Browser)</text>
</g>
<!-- frontend -->
<g id="node2" class="node">
<title>frontend</title>
<path fill="white" stroke="#333333" d="M139.84,-360.7C139.84,-360.7 56.16,-360.7 56.16,-360.7 50.16,-360.7 44.16,-354.7 44.16,-348.7 44.16,-348.7 44.16,-314.92 44.16,-314.92 44.16,-308.92 50.16,-302.92 56.16,-302.92 56.16,-302.92 139.84,-302.92 139.84,-302.92 145.84,-302.92 151.84,-308.92 151.84,-314.92 151.84,-314.92 151.84,-348.7 151.84,-348.7 151.84,-354.7 145.84,-360.7 139.84,-360.7"/>
<text xml:space="preserve" text-anchor="middle" x="98" y="-341.61" font-family="Arial" font-size="11.00">Frontend</text>
<text xml:space="preserve" text-anchor="middle" x="98" y="-328.11" font-family="Arial" font-size="11.00">React SPA (Vite)</text>
<text xml:space="preserve" text-anchor="middle" x="98" y="-314.61" font-family="Arial" font-size="11.00">cổng 3000</text>
</g>
<!-- client&#45;&gt;frontend -->
<g id="edge1" class="edge">
<title>client&#45;&gt;frontend</title>
<path fill="none" stroke="#333333" stroke-width="0.9" d="M219.56,-487C164.28,-487 98,-487 98,-487 98,-487 98,-370.36 98,-370.36"/>
<polygon fill="#333333" stroke="#333333" stroke-width="0.9" points="100.8,-370.36 98,-362.36 95.2,-370.36 100.8,-370.36"/>
<text xml:space="preserve" text-anchor="middle" x="70.46" y="-488.95" font-family="Arial" font-size="9.00">tải SPA (HTTP)</text>
</g>
<!-- backend -->
<g id="node3" class="node">
<title>backend</title>
<path fill="white" stroke="#333333" d="M573.34,-367.45C573.34,-367.45 402.67,-367.45 402.67,-367.45 396.67,-367.45 390.67,-361.45 390.67,-355.45 390.67,-355.45 390.67,-308.17 390.67,-308.17 390.67,-302.17 396.67,-296.17 402.67,-296.17 402.67,-296.17 573.34,-296.17 573.34,-296.17 579.34,-296.17 585.34,-302.17 585.34,-308.17 585.34,-308.17 585.34,-355.45 585.34,-355.45 585.34,-361.45 579.34,-367.45 573.34,-367.45"/>
<text xml:space="preserve" text-anchor="middle" x="488" y="-348.36" font-family="Arial" font-size="11.00">Backend &#45; Express API</text>
<text xml:space="preserve" text-anchor="middle" x="488" y="-334.86" font-family="Arial" font-size="11.00">cổng 5000</text>
<text xml:space="preserve" text-anchor="middle" x="488" y="-321.36" font-family="Arial" font-size="11.00">(REST API + WebSocket /ws/cskh</text>
<text xml:space="preserve" text-anchor="middle" x="488" y="-307.86" font-family="Arial" font-size="11.00">+ orderScheduler cron, 1 tiến trình)</text>
</g>
<!-- client&#45;&gt;backend -->
<g id="edge2" class="edge">
<title>client&#45;&gt;backend</title>
<path fill="none" stroke="#333333" stroke-width="0.9" d="M361.33,-464.16C361.33,-423.32 361.33,-341 361.33,-341 361.33,-341 381.03,-341 381.03,-341"/>
<polygon fill="#333333" stroke="#333333" stroke-width="0.9" points="381.03,-343.8 389.03,-341 381.03,-338.2 381.03,-343.8"/>
<text xml:space="preserve" text-anchor="middle" x="291.21" y="-394.68" font-family="Arial" font-size="9.00">REST /api/* + WebSocket /ws/cskh</text>
</g>
<!-- redis -->
<g id="node5" class="node">
<title>redis</title>
<path fill="#f5f5f5" stroke="#333333" d="M352.08,-193.63C352.08,-196.68 335.01,-199.17 314,-199.17 292.99,-199.17 275.92,-196.68 275.92,-193.63 275.92,-193.63 275.92,-143.82 275.92,-143.82 275.92,-140.76 292.99,-138.28 314,-138.28 335.01,-138.28 352.08,-140.76 352.08,-143.82 352.08,-143.82 352.08,-193.63 352.08,-193.63"/>
<path fill="none" stroke="#333333" d="M352.08,-193.63C352.08,-190.58 335.01,-188.1 314,-188.1 292.99,-188.1 275.92,-190.58 275.92,-193.63"/>
<text xml:space="preserve" text-anchor="middle" x="314" y="-171.77" font-family="Arial" font-size="11.00">Redis</text>
<text xml:space="preserve" text-anchor="middle" x="314" y="-158.27" font-family="Arial" font-size="11.00">cổng 6379</text>
</g>
<!-- backend&#45;&gt;redis -->
<g id="edge6" class="edge">
<title>backend&#45;&gt;redis</title>
<path fill="none" stroke="#999999" stroke-width="0.9" stroke-dasharray="5,2" d="M396.54,-295.98C396.54,-250.81 396.54,-179 396.54,-179 396.54,-179 361.47,-179 361.47,-179"/>
<polygon fill="#999999" stroke="#999999" stroke-width="0.9" points="353.47,-179 361.47,-175.4 356.37,-179 361.47,-179 361.47,-179 361.47,-179 356.37,-179 361.47,-182.6 353.47,-179"/>
<text xml:space="preserve" text-anchor="middle" x="380.04" y="-211.4" font-family="Arial" font-size="9.00">enqueueOrder *</text>
</g>
<!-- db -->
<g id="node6" class="node">
<title>db</title>
<path fill="#f5f5f5" stroke="#333333" d="M487.58,-193.63C487.58,-196.68 468.5,-199.17 445,-199.17 421.5,-199.17 402.42,-196.68 402.42,-193.63 402.42,-193.63 402.42,-143.82 402.42,-143.82 402.42,-140.76 421.5,-138.28 445,-138.28 468.5,-138.28 487.58,-140.76 487.58,-143.82 487.58,-143.82 487.58,-193.63 487.58,-193.63"/>
<path fill="none" stroke="#333333" d="M487.58,-193.63C487.58,-190.58 468.5,-188.1 445,-188.1 421.5,-188.1 402.42,-190.58 402.42,-193.63"/>
<text xml:space="preserve" text-anchor="middle" x="445" y="-171.77" font-family="Arial" font-size="11.00">PostgreSQL</text>
<text xml:space="preserve" text-anchor="middle" x="445" y="-158.27" font-family="Arial" font-size="11.00">cổng 5432</text>
</g>
<!-- backend&#45;&gt;db -->
<g id="edge5" class="edge">
<title>backend&#45;&gt;db</title>
<path fill="none" stroke="#333333" stroke-width="0.9" d="M445,-296.02C445,-296.02 445,-208.85 445,-208.85"/>
<polygon fill="#333333" stroke="#333333" stroke-width="0.9" points="447.8,-208.85 445,-200.85 442.2,-208.85 447.8,-208.85"/>
<text xml:space="preserve" text-anchor="middle" x="409" y="-254.38" font-family="Arial" font-size="9.00">Prisma (backend)</text>
</g>
<!-- worker -->
<g id="node4" class="node">
<title>worker</title>
<path fill="white" stroke="#333333" d="M328.58,-360.7C328.58,-360.7 213.42,-360.7 213.42,-360.7 207.42,-360.7 201.42,-354.7 201.42,-348.7 201.42,-348.7 201.42,-314.92 201.42,-314.92 201.42,-308.92 207.42,-302.92 213.42,-302.92 213.42,-302.92 328.58,-302.92 328.58,-302.92 334.58,-302.92 340.58,-308.92 340.58,-314.92 340.58,-314.92 340.58,-348.7 340.58,-348.7 340.58,-354.7 334.58,-360.7 328.58,-360.7"/>
<text xml:space="preserve" text-anchor="middle" x="271" y="-341.61" font-family="Arial" font-size="11.00">Worker</text>
<text xml:space="preserve" text-anchor="middle" x="271" y="-328.11" font-family="Arial" font-size="11.00">npm run queue:worker</text>
<text xml:space="preserve" text-anchor="middle" x="271" y="-314.61" font-family="Arial" font-size="11.00">(BRPOP orders:queue)</text>
</g>
<!-- worker&#45;&gt;redis -->
<g id="edge3" class="edge">
<title>worker&#45;&gt;redis</title>
<path fill="none" stroke="#333333" stroke-width="0.9" d="M308.25,-302.65C308.25,-302.65 308.25,-208.93 308.25,-208.93"/>
<polygon fill="#333333" stroke="#333333" stroke-width="0.9" points="311.05,-208.93 308.25,-200.93 305.45,-208.93 311.05,-208.93"/>
<text xml:space="preserve" text-anchor="middle" x="264" y="-257.74" font-family="Arial" font-size="9.00">BRPOP orders:queue</text>
</g>
<!-- worker&#45;&gt;db -->
<g id="edge4" class="edge">
<title>worker&#45;&gt;db</title>
<path fill="none" stroke="#333333" stroke-width="0.9" d="M340.99,-322C350.3,-322 356.71,-322 356.71,-322 356.71,-322 356.71,-159 356.71,-159 356.71,-159 392.79,-159 392.79,-159"/>
<polygon fill="#333333" stroke="#333333" stroke-width="0.9" points="392.79,-161.8 400.79,-159 392.79,-156.2 392.79,-161.8"/>
<text xml:space="preserve" text-anchor="middle" x="324.46" y="-232.27" font-family="Arial" font-size="9.00">Prisma (worker)</text>
</g>
<!-- footnote -->
<g id="node7" class="node">
<title>footnote</title>
<path fill="white" stroke="none" d="M637.96,-41.28C637.96,-41.28 120.04,-41.28 120.04,-41.28 114.04,-41.28 108.04,-35.28 108.04,-29.28 108.04,-29.28 108.04,-12 108.04,-12 108.04,-6 114.04,0 120.04,0 120.04,0 637.96,0 637.96,0 643.96,0 649.96,-6 649.96,-12 649.96,-12 649.96,-29.28 649.96,-29.28 649.96,-35.28 643.96,-41.28 637.96,-41.28"/>
<text xml:space="preserve" text-anchor="middle" x="379" y="-23.14" font-family="Arial" font-size="10.00" fill="#555555">* Đường nét đứt: enqueueOrder (orderQueue.js) hiện chỉ được gọi từ backend/src/enqueue_demo.js,</text>
<text xml:space="preserve" text-anchor="middle" x="379" y="-11.14" font-family="Arial" font-size="10.00" fill="#555555">chưa có route/controller nghiệp vụ thật nào gọi tới &#45; hạ tầng hàng đợi đã triển khai nhưng chưa gắn vào luồng tạo đơn.</text>
</g>
<!-- redis&#45;&gt;footnote -->
<!-- db&#45;&gt;footnote -->
</g>
</svg>
