<?xml version="1.0" encoding="UTF-8" standalone="no"?>
<!DOCTYPE svg PUBLIC "-//W3C//DTD SVG 1.1//EN"
 "http://www.w3.org/Graphics/SVG/1.1/DTD/svg11.dtd">
<!-- Generated by graphviz version 16.1.0 (20260904.0139)
 -->
<!-- Title: UseCaseAetherPC Pages: 1 -->
<svg width="1201pt" height="2135pt"
 viewBox="0.00 0.00 1201.00 2135.00" xmlns="http://www.w3.org/2000/svg" xmlns:xlink="http://www.w3.org/1999/xlink">
<g id="graph0" class="graph" transform="scale(1 1) rotate(0) translate(4 2131.25)">
<title>UseCaseAetherPC</title>
<polygon fill="white" stroke="none" points="-4,4 -4,-2131.25 1197.14,-2131.25 1197.14,4 -4,4"/>
<text xml:space="preserve" text-anchor="middle" x="596.57" y="-2104.25" font-family="Arial" font-size="20.00" fill="#111111">Xây Dựng Và Triển Khai Hệ Thống ERP Cho Doanh Nghiệp AetherPC</text>
<g id="clust1" class="cluster">
<title>cluster_system</title>
<polygon fill="white" stroke="#333333" points="362.6,-8 362.6,-2088 963.14,-2088 963.14,-8 362.6,-8"/>
<text xml:space="preserve" text-anchor="middle" x="662.87" y="-2069.75" font-family="Arial" font-size="15.00" fill="#111111">Hệ Thống ERP AetherPC</text>
</g>
<!-- uc_xemsp -->
<g id="node1" class="node">
<title>uc_xemsp</title>
<ellipse fill="white" stroke="#333333" cx="489.3" cy="-1671" rx="64.8" ry="24.75"/>
<text xml:space="preserve" text-anchor="middle" x="489.3" y="-1674.05" font-family="Arial" font-size="11.00">Xem / Tìm</text>
<text xml:space="preserve" text-anchor="middle" x="489.3" y="-1660.55" font-family="Arial" font-size="11.00">Sản Phẩm</text>
</g>
<!-- uc_dangky -->
<g id="node2" class="node">
<title>uc_dangky</title>
<ellipse fill="white" stroke="#333333" cx="489.3" cy="-1752" rx="64.8" ry="24.75"/>
<text xml:space="preserve" text-anchor="middle" x="489.3" y="-1755.05" font-family="Arial" font-size="11.00">Đăng Ký</text>
<text xml:space="preserve" text-anchor="middle" x="489.3" y="-1741.55" font-family="Arial" font-size="11.00">Tài Khoản</text>
</g>
<!-- uc_xemsp&#45;&gt;uc_dangky -->
<!-- uc_buildpc -->
<g id="node3" class="node">
<title>uc_buildpc</title>
<ellipse fill="white" stroke="#333333" cx="489.3" cy="-1833" rx="64.8" ry="24.75"/>
<text xml:space="preserve" text-anchor="middle" x="489.3" y="-1836.05" font-family="Arial" font-size="11.00">Tự Cấu Hình</text>
<text xml:space="preserve" text-anchor="middle" x="489.3" y="-1822.55" font-family="Arial" font-size="11.00">&amp; Build PC</text>
</g>
<!-- uc_dangky&#45;&gt;uc_buildpc -->
<!-- uc_dathang -->
<g id="node4" class="node">
<title>uc_dathang</title>
<ellipse fill="white" stroke="#333333" cx="489.3" cy="-1272" rx="64.8" ry="18"/>
<text xml:space="preserve" text-anchor="middle" x="489.3" y="-1268.3" font-family="Arial" font-size="11.00">Đặt Hàng</text>
</g>
<!-- uc_buildpc&#45;&gt;uc_dathang -->
<!-- uc_buildpc&#45;&gt;uc_dathang -->
<g id="edge123" class="edge">
<title>uc_buildpc&#45;&gt;uc_dathang</title>
<path fill="none" stroke="#555555" stroke-dasharray="5,2" d="M526.34,-1812.25C570.71,-1812.25 639.14,-1812.25 639.14,-1812.25 639.14,-1812.25 639.14,-1275.6 639.14,-1275.6 639.14,-1275.6 561.5,-1275.6 561.5,-1275.6"/>
<polygon fill="#555555" stroke="#555555" points="554.5,-1275.6 561.5,-1272.45 556.78,-1275.6 561.5,-1275.6 561.5,-1275.6 561.5,-1275.6 556.78,-1275.6 561.5,-1278.75 554.5,-1275.6"/>
<text xml:space="preserve" text-anchor="middle" x="620.02" y="-1552.96" font-family="Arial" font-size="9.00">«extend»</text>
</g>
<!-- uc_suahuy -->
<g id="node5" class="node">
<title>uc_suahuy</title>
<ellipse fill="white" stroke="#333333" cx="489.3" cy="-1347" rx="96.7" ry="24.75"/>
<text xml:space="preserve" text-anchor="middle" x="489.3" y="-1350.05" font-family="Arial" font-size="11.00">Sửa Thông Tin</text>
<text xml:space="preserve" text-anchor="middle" x="489.3" y="-1336.55" font-family="Arial" font-size="11.00">Đơn Hàng (Khi Chờ XN)</text>
</g>
<!-- uc_dathang&#45;&gt;uc_suahuy -->
<!-- uc_tonkho -->
<g id="node24" class="node">
<title>uc_tonkho</title>
<ellipse fill="white" stroke="#333333" cx="838.57" cy="-63" rx="65.94" ry="24.75"/>
<text xml:space="preserve" text-anchor="middle" x="838.57" y="-66.05" font-family="Arial" font-size="11.00">Kiểm Tra &amp; Cập</text>
<text xml:space="preserve" text-anchor="middle" x="838.57" y="-52.55" font-family="Arial" font-size="11.00">Nhật Tồn Kho</text>
</g>
<!-- uc_dathang&#45;&gt;uc_tonkho -->
<g id="edge117" class="edge">
<title>uc_dathang&#45;&gt;uc_tonkho</title>
<path fill="none" stroke="#555555" stroke-dasharray="5,2" d="M542.11,-1261.2C575.4,-1261.2 612.14,-1261.2 612.14,-1261.2 612.14,-1261.2 612.14,-71.25 612.14,-71.25 612.14,-71.25 767.58,-71.25 767.58,-71.25"/>
<polygon fill="#555555" stroke="#555555" points="774.58,-71.25 767.58,-74.4 772.3,-71.25 767.58,-71.25 767.58,-71.25 767.58,-71.25 772.3,-71.25 767.58,-68.1 774.58,-71.25"/>
<text xml:space="preserve" text-anchor="middle" x="591.89" y="-614.98" font-family="Arial" font-size="9.00">«include»</text>
</g>
<!-- uc_thanhtoan -->
<g id="node6" class="node">
<title>uc_thanhtoan</title>
<ellipse fill="white" stroke="#333333" cx="489.3" cy="-1428" rx="72.3" ry="24.75"/>
<text xml:space="preserve" text-anchor="middle" x="489.3" y="-1431.05" font-family="Arial" font-size="11.00">Chọn PT &amp; Xác</text>
<text xml:space="preserve" text-anchor="middle" x="489.3" y="-1417.55" font-family="Arial" font-size="11.00">Nhận Thanh Toán</text>
</g>
<!-- uc_suahuy&#45;&gt;uc_thanhtoan -->
<!-- uc_thanhtoan&#45;&gt;uc_dathang -->
<g id="edge122" class="edge">
<title>uc_thanhtoan&#45;&gt;uc_dathang</title>
<path fill="none" stroke="#555555" stroke-dasharray="5,2" d="M537.96,-1409.25C576.94,-1409.25 625.14,-1409.25 625.14,-1409.25 625.14,-1409.25 625.14,-1282.8 625.14,-1282.8 625.14,-1282.8 550.43,-1282.8 550.43,-1282.8"/>
<polygon fill="#555555" stroke="#555555" points="543.43,-1282.8 550.43,-1279.65 545.71,-1282.8 550.43,-1282.8 550.43,-1282.8 550.43,-1282.8 545.71,-1282.8 550.43,-1285.95 543.43,-1282.8"/>
<text xml:space="preserve" text-anchor="middle" x="606.02" y="-1343.71" font-family="Arial" font-size="9.00">«extend»</text>
</g>
<!-- uc_theodoi -->
<g id="node7" class="node">
<title>uc_theodoi</title>
<ellipse fill="white" stroke="#333333" cx="489.3" cy="-1509" rx="64.8" ry="24.75"/>
<text xml:space="preserve" text-anchor="middle" x="489.3" y="-1512.05" font-family="Arial" font-size="11.00">Theo Dõi</text>
<text xml:space="preserve" text-anchor="middle" x="489.3" y="-1498.55" font-family="Arial" font-size="11.00">Đơn Hàng</text>
</g>
<!-- uc_thanhtoan&#45;&gt;uc_theodoi -->
<!-- uc_hoso -->
<g id="node8" class="node">
<title>uc_hoso</title>
<ellipse fill="white" stroke="#333333" cx="489.3" cy="-1590" rx="64.88" ry="24.75"/>
<text xml:space="preserve" text-anchor="middle" x="489.3" y="-1593.05" font-family="Arial" font-size="11.00">Quản Lý Hồ Sơ</text>
<text xml:space="preserve" text-anchor="middle" x="489.3" y="-1579.55" font-family="Arial" font-size="11.00">&amp; Sổ Địa Chỉ</text>
</g>
<!-- uc_theodoi&#45;&gt;uc_hoso -->
<!-- uc_danhgia -->
<g id="node9" class="node">
<title>uc_danhgia</title>
<ellipse fill="white" stroke="#333333" cx="489.3" cy="-1035" rx="64.8" ry="24.75"/>
<text xml:space="preserve" text-anchor="middle" x="489.3" y="-1038.05" font-family="Arial" font-size="11.00">Đánh Giá</text>
<text xml:space="preserve" text-anchor="middle" x="489.3" y="-1024.55" font-family="Arial" font-size="11.00">Sản Phẩm</text>
</g>
<!-- uc_hoso&#45;&gt;uc_danhgia -->
<!-- uc_danhgia&#45;&gt;uc_theodoi -->
<g id="edge121" class="edge">
<title>uc_danhgia&#45;&gt;uc_theodoi</title>
<path fill="none" stroke="#555555" stroke-dasharray="5,2" d="M550.8,-1043.25C601.51,-1043.25 665.14,-1043.25 665.14,-1043.25 665.14,-1043.25 665.14,-1491.63 665.14,-1491.63 665.14,-1491.63 544.64,-1491.63 544.64,-1491.63"/>
<polygon fill="#555555" stroke="#555555" points="537.64,-1491.63 544.64,-1488.48 539.92,-1491.63 544.64,-1491.63 544.64,-1491.63 544.64,-1491.63 539.92,-1491.63 544.64,-1494.78 537.64,-1491.63"/>
<text xml:space="preserve" text-anchor="middle" x="646.02" y="-1261.97" font-family="Arial" font-size="9.00">«extend»</text>
</g>
<!-- uc_khieunai -->
<g id="node10" class="node">
<title>uc_khieunai</title>
<ellipse fill="white" stroke="#333333" cx="489.3" cy="-1116" rx="64.8" ry="24.75"/>
<text xml:space="preserve" text-anchor="middle" x="489.3" y="-1119.05" font-family="Arial" font-size="11.00">Gửi Khiếu Nại /</text>
<text xml:space="preserve" text-anchor="middle" x="489.3" y="-1105.55" font-family="Arial" font-size="11.00">Đổi Trả</text>
</g>
<!-- uc_danhgia&#45;&gt;uc_khieunai -->
<!-- uc_chatkh -->
<g id="node11" class="node">
<title>uc_chatkh</title>
<ellipse fill="white" stroke="#333333" cx="489.3" cy="-1197" rx="64.8" ry="24.75"/>
<text xml:space="preserve" text-anchor="middle" x="489.3" y="-1200.05" font-family="Arial" font-size="11.00">Chat Hỗ Trợ</text>
<text xml:space="preserve" text-anchor="middle" x="489.3" y="-1186.55" font-family="Arial" font-size="11.00">Trực Tuyến</text>
</g>
<!-- uc_khieunai&#45;&gt;uc_chatkh -->
<!-- uc_chat -->
<g id="node12" class="node">
<title>uc_chat</title>
<ellipse fill="white" stroke="#333333" cx="489.3" cy="-954" rx="64.8" ry="24.75"/>
<text xml:space="preserve" text-anchor="middle" x="489.3" y="-957.05" font-family="Arial" font-size="11.00">Trả Lời Chat</text>
<text xml:space="preserve" text-anchor="middle" x="489.3" y="-943.55" font-family="Arial" font-size="11.00">Trực Tuyến</text>
</g>
<!-- uc_chatkh&#45;&gt;uc_chat -->
<!-- uc_xlkhieunai -->
<g id="node13" class="node">
<title>uc_xlkhieunai</title>
<ellipse fill="white" stroke="#333333" cx="489.3" cy="-873" rx="64.8" ry="24.75"/>
<text xml:space="preserve" text-anchor="middle" x="489.3" y="-876.05" font-family="Arial" font-size="11.00">Xử Lý</text>
<text xml:space="preserve" text-anchor="middle" x="489.3" y="-862.55" font-family="Arial" font-size="11.00">Khiếu Nại</text>
</g>
<!-- uc_chat&#45;&gt;uc_xlkhieunai -->
<!-- uc_phanhoi -->
<g id="node14" class="node">
<title>uc_phanhoi</title>
<ellipse fill="white" stroke="#333333" cx="489.3" cy="-792" rx="64.8" ry="24.75"/>
<text xml:space="preserve" text-anchor="middle" x="489.3" y="-795.05" font-family="Arial" font-size="11.00">Phản Hồi</text>
<text xml:space="preserve" text-anchor="middle" x="489.3" y="-781.55" font-family="Arial" font-size="11.00">Báo Giá (RFQ)</text>
</g>
<!-- uc_xlkhieunai&#45;&gt;uc_phanhoi -->
<!-- uc_xacnhanpo -->
<g id="node15" class="node">
<title>uc_xacnhanpo</title>
<ellipse fill="white" stroke="#333333" cx="489.3" cy="-711" rx="65.41" ry="24.75"/>
<text xml:space="preserve" text-anchor="middle" x="489.3" y="-714.05" font-family="Arial" font-size="11.00">Xác Nhận Đơn</text>
<text xml:space="preserve" text-anchor="middle" x="489.3" y="-700.55" font-family="Arial" font-size="11.00">Mua Hàng (PO)</text>
</g>
<!-- uc_phanhoi&#45;&gt;uc_xacnhanpo -->
<!-- uc_pos -->
<g id="node16" class="node">
<title>uc_pos</title>
<ellipse fill="white" stroke="#333333" cx="489.3" cy="-630" rx="64.8" ry="24.75"/>
<text xml:space="preserve" text-anchor="middle" x="489.3" y="-633.05" font-family="Arial" font-size="11.00">Bán Hàng Tại</text>
<text xml:space="preserve" text-anchor="middle" x="489.3" y="-619.55" font-family="Arial" font-size="11.00">Quầy (POS)</text>
</g>
<!-- uc_xacnhanpo&#45;&gt;uc_pos -->
<!-- uc_xldonhang -->
<g id="node17" class="node">
<title>uc_xldonhang</title>
<ellipse fill="white" stroke="#333333" cx="489.3" cy="-549" rx="74.42" ry="24.75"/>
<text xml:space="preserve" text-anchor="middle" x="489.3" y="-552.05" font-family="Arial" font-size="11.00">Xử Lý &amp; Cập Nhật</text>
<text xml:space="preserve" text-anchor="middle" x="489.3" y="-538.55" font-family="Arial" font-size="11.00">Đơn Hàng</text>
</g>
<!-- uc_pos&#45;&gt;uc_xldonhang -->
<!-- uc_pos&#45;&gt;uc_tonkho -->
<g id="edge118" class="edge">
<title>uc_pos&#45;&gt;uc_tonkho</title>
<path fill="none" stroke="#555555" stroke-dasharray="5,2" d="M554.47,-630C578.12,-630 599.14,-630 599.14,-630 599.14,-630 599.14,-54.75 599.14,-54.75 599.14,-54.75 767.76,-54.75 767.76,-54.75"/>
<polygon fill="#555555" stroke="#555555" points="774.76,-54.75 767.76,-57.9 772.48,-54.75 767.76,-54.75 767.76,-54.75 767.76,-54.75 772.48,-54.75 767.76,-51.6 774.76,-54.75"/>
<text xml:space="preserve" text-anchor="middle" x="578.89" y="-271.86" font-family="Arial" font-size="9.00">«include»</text>
</g>
<!-- uc_duyethuy -->
<g id="node18" class="node">
<title>uc_duyethuy</title>
<ellipse fill="white" stroke="#333333" cx="489.3" cy="-468" rx="64.8" ry="24.75"/>
<text xml:space="preserve" text-anchor="middle" x="489.3" y="-471.05" font-family="Arial" font-size="11.00">Duyệt Hủy</text>
<text xml:space="preserve" text-anchor="middle" x="489.3" y="-457.55" font-family="Arial" font-size="11.00">Đơn Hàng</text>
</g>
<!-- uc_xldonhang&#45;&gt;uc_duyethuy -->
<!-- uc_duyethuy&#45;&gt;uc_xldonhang -->
<g id="edge120" class="edge">
<title>uc_duyethuy&#45;&gt;uc_xldonhang</title>
<path fill="none" stroke="#555555" stroke-dasharray="5,2" d="M511.14,-491.43C511.14,-491.43 511.14,-516.84 511.14,-516.84"/>
<polygon fill="#555555" stroke="#555555" points="511.14,-523.84 507.99,-516.84 511.14,-521.56 511.14,-516.84 511.14,-516.84 511.14,-516.84 511.14,-521.56 514.29,-516.84 511.14,-523.84"/>
<text xml:space="preserve" text-anchor="middle" x="492.02" y="-495.59" font-family="Arial" font-size="9.00">«extend»</text>
</g>
<!-- uc_qlncc -->
<g id="node19" class="node">
<title>uc_qlncc</title>
<ellipse fill="white" stroke="#333333" cx="489.3" cy="-225" rx="76.54" ry="24.75"/>
<text xml:space="preserve" text-anchor="middle" x="489.3" y="-228.05" font-family="Arial" font-size="11.00">Quản Lý &amp; Đánh</text>
<text xml:space="preserve" text-anchor="middle" x="489.3" y="-214.55" font-family="Arial" font-size="11.00">Giá Nhà Cung Cấp</text>
</g>
<!-- uc_duyethuy&#45;&gt;uc_qlncc -->
<!-- uc_rfq -->
<g id="node20" class="node">
<title>uc_rfq</title>
<ellipse fill="white" stroke="#333333" cx="489.3" cy="-306" rx="64.8" ry="24.75"/>
<text xml:space="preserve" text-anchor="middle" x="489.3" y="-309.05" font-family="Arial" font-size="11.00">Lập RFQ &amp; So</text>
<text xml:space="preserve" text-anchor="middle" x="489.3" y="-295.55" font-family="Arial" font-size="11.00">Sánh Báo Giá</text>
</g>
<!-- uc_qlncc&#45;&gt;uc_rfq -->
<!-- uc_taopo -->
<g id="node21" class="node">
<title>uc_taopo</title>
<ellipse fill="white" stroke="#333333" cx="489.3" cy="-387" rx="64.8" ry="24.75"/>
<text xml:space="preserve" text-anchor="middle" x="489.3" y="-390.05" font-family="Arial" font-size="11.00">Trình Duyệt PO</text>
<text xml:space="preserve" text-anchor="middle" x="489.3" y="-376.55" font-family="Arial" font-size="11.00">(Chốt Báo Giá)</text>
</g>
<!-- uc_rfq&#45;&gt;uc_taopo -->
<!-- uc_qa -->
<g id="node22" class="node">
<title>uc_qa</title>
<ellipse fill="white" stroke="#333333" cx="489.3" cy="-144" rx="94.58" ry="24.75"/>
<text xml:space="preserve" text-anchor="middle" x="489.3" y="-147.05" font-family="Arial" font-size="11.00">Kiểm Tra Chất</text>
<text xml:space="preserve" text-anchor="middle" x="489.3" y="-133.55" font-family="Arial" font-size="11.00">Lượng Hàng Nhập (QA)</text>
</g>
<!-- uc_taopo&#45;&gt;uc_qa -->
<!-- uc_qctra -->
<g id="node23" class="node">
<title>uc_qctra</title>
<ellipse fill="white" stroke="#333333" cx="489.3" cy="-63" rx="64.8" ry="24.75"/>
<text xml:space="preserve" text-anchor="middle" x="489.3" y="-66.05" font-family="Arial" font-size="11.00">Thẩm Định</text>
<text xml:space="preserve" text-anchor="middle" x="489.3" y="-52.55" font-family="Arial" font-size="11.00">Hàng Hoàn Trả</text>
</g>
<!-- uc_qa&#45;&gt;uc_qctra -->
<!-- uc_xinnghi -->
<g id="node25" class="node">
<title>uc_xinnghi</title>
<ellipse fill="white" stroke="#333333" cx="838.57" cy="-306" rx="64.8" ry="24.75"/>
<text xml:space="preserve" text-anchor="middle" x="838.57" y="-309.05" font-family="Arial" font-size="11.00">Xin Nghỉ Phép</text>
<text xml:space="preserve" text-anchor="middle" x="838.57" y="-295.55" font-family="Arial" font-size="11.00">(Đơn Của Tôi)</text>
</g>
<!-- uc_tonkho&#45;&gt;uc_xinnghi -->
<!-- uc_luongtoi -->
<g id="node26" class="node">
<title>uc_luongtoi</title>
<ellipse fill="white" stroke="#333333" cx="838.57" cy="-144" rx="64.8" ry="24.75"/>
<text xml:space="preserve" text-anchor="middle" x="838.57" y="-147.05" font-family="Arial" font-size="11.00">Tra Cứu Bảng</text>
<text xml:space="preserve" text-anchor="middle" x="838.57" y="-133.55" font-family="Arial" font-size="11.00">Lương Của Tôi</text>
</g>
<!-- uc_xinnghi&#45;&gt;uc_luongtoi -->
<!-- a18 -->
<g id="node66" class="node">
<title>a18</title>
<image xlink:href="actor_icon.png" width="40px" height="45px" preserveAspectRatio="xMinYMin meet" x="1122.14" y="-298.25"/>
<text xml:space="preserve" text-anchor="start" x="1116.64" y="-236.75" font-family="Arial" font-size="11.00">Nhân Viên</text>
</g>
<!-- uc_xinnghi&#45;&gt;a18 -->
<g id="edge107" class="edge">
<title>uc_xinnghi&#45;&gt;a18</title>
<path fill="none" stroke="#555555" d="M901.84,-300C963.18,-300 1054.17,-300 1104.76,-300"/>
</g>
<!-- uc_xemtongquan -->
<g id="node27" class="node">
<title>uc_xemtongquan</title>
<ellipse fill="white" stroke="#333333" cx="838.57" cy="-225" rx="67.53" ry="24.75"/>
<text xml:space="preserve" text-anchor="middle" x="838.57" y="-228.05" font-family="Arial" font-size="11.00">Xem Tổng Quan</text>
<text xml:space="preserve" text-anchor="middle" x="838.57" y="-214.55" font-family="Arial" font-size="11.00">Công Việc</text>
</g>
<!-- uc_luongtoi&#45;&gt;uc_xemtongquan -->
<!-- uc_luongtoi&#45;&gt;a18 -->
<g id="edge108" class="edge">
<title>uc_luongtoi&#45;&gt;a18</title>
<path fill="none" stroke="#555555" d="M900,-135.75C988.71,-135.75 1142.14,-135.75 1142.14,-135.75 1142.14,-135.75 1142.14,-187.59 1142.14,-225.86"/>
</g>
<!-- uc_grn -->
<g id="node28" class="node">
<title>uc_grn</title>
<ellipse fill="white" stroke="#333333" cx="838.57" cy="-1926" rx="94.58" ry="24.75"/>
<text xml:space="preserve" text-anchor="middle" x="838.57" y="-1929.05" font-family="Arial" font-size="11.00">Nghiệm Thu Hàng Nhập</text>
<text xml:space="preserve" text-anchor="middle" x="838.57" y="-1915.55" font-family="Arial" font-size="11.00">&amp; Theo Dõi Kho (GRN)</text>
</g>
<!-- uc_xemtongquan&#45;&gt;uc_grn -->
<!-- uc_xemtongquan&#45;&gt;a18 -->
<g id="edge109" class="edge">
<title>uc_xemtongquan&#45;&gt;a18</title>
<path fill="none" stroke="#555555" d="M902.21,-233.75C963.58,-233.75 1054.38,-233.75 1104.86,-233.75"/>
</g>
<!-- uc_xuatkho -->
<g id="node29" class="node">
<title>uc_xuatkho</title>
<ellipse fill="white" stroke="#333333" cx="838.57" cy="-1521" rx="86.09" ry="24.75"/>
<text xml:space="preserve" text-anchor="middle" x="838.57" y="-1524.05" font-family="Arial" font-size="11.00">Xác Nhận Xuất Kho</text>
<text xml:space="preserve" text-anchor="middle" x="838.57" y="-1510.55" font-family="Arial" font-size="11.00">&amp; Phân Công Shipper</text>
</g>
<!-- uc_grn&#45;&gt;uc_xuatkho -->
<!-- a9 -->
<g id="node57" class="node">
<title>a9</title>
<image xlink:href="actor_icon.png" width="40px" height="45px" preserveAspectRatio="xMinYMin meet" x="1122.14" y="-1958.25"/>
<text xml:space="preserve" text-anchor="start" x="1105.39" y="-1896.75" font-family="Arial" font-size="11.00">Nhân Viên Kho</text>
</g>
<!-- uc_grn&#45;&gt;a9 -->
<g id="edge86" class="edge">
<title>uc_grn&#45;&gt;a9</title>
<path fill="none" stroke="#555555" d="M928.42,-1934.25C982.44,-1934.25 1049.11,-1934.25 1093.47,-1934.25"/>
</g>
<!-- uc_xuatkho&#45;&gt;uc_tonkho -->
<g id="edge119" class="edge">
<title>uc_xuatkho&#45;&gt;uc_tonkho</title>
<path fill="none" stroke="#555555" stroke-dasharray="5,2" d="M912.79,-1508.13C979.86,-1508.13 1068.14,-1508.13 1068.14,-1508.13 1068.14,-1508.13 1068.14,-54.75 1068.14,-54.75 1068.14,-54.75 909.52,-54.75 909.52,-54.75"/>
<polygon fill="#555555" stroke="#555555" points="902.52,-54.75 909.52,-51.6 904.8,-54.75 909.52,-54.75 909.52,-54.75 909.52,-54.75 904.8,-54.75 909.52,-57.9 902.52,-54.75"/>
<text xml:space="preserve" text-anchor="middle" x="1047.89" y="-771.25" font-family="Arial" font-size="9.00">«include»</text>
</g>
<!-- uc_kiemke -->
<g id="node31" class="node">
<title>uc_kiemke</title>
<ellipse fill="white" stroke="#333333" cx="838.57" cy="-2007" rx="64.8" ry="24.75"/>
<text xml:space="preserve" text-anchor="middle" x="838.57" y="-2010.05" font-family="Arial" font-size="11.00">Kiểm Kê &amp; Cân</text>
<text xml:space="preserve" text-anchor="middle" x="838.57" y="-1996.55" font-family="Arial" font-size="11.00">Bằng Tồn Kho</text>
</g>
<!-- uc_xuatkho&#45;&gt;uc_kiemke -->
<!-- a10 -->
<g id="node58" class="node">
<title>a10</title>
<image xlink:href="actor_icon.png" width="40px" height="45px" preserveAspectRatio="xMinYMin meet" x="1122.14" y="-1845.25"/>
<text xml:space="preserve" text-anchor="start" x="1110.64" y="-1783.75" font-family="Arial" font-size="11.00">Quản Lý Kho</text>
</g>
<!-- uc_xuatkho&#45;&gt;a10 -->
<g id="edge88" class="edge">
<title>uc_xuatkho&#45;&gt;a10</title>
<path fill="none" stroke="#555555" d="M921.14,-1528.49C921.14,-1571.08 921.14,-1780.75 921.14,-1780.75 921.14,-1780.75 1034.38,-1780.75 1098.75,-1780.75"/>
</g>
<!-- a17 -->
<g id="node61" class="node">
<title>a17</title>
<image xlink:href="actor_icon.png" width="40px" height="45px" preserveAspectRatio="xMinYMin meet" x="1122.14" y="-1479"/>
<text xml:space="preserve" text-anchor="start" x="1119.27" y="-1417.5" font-family="Arial" font-size="11.00">«system»</text>
<text xml:space="preserve" text-anchor="start" x="1103.14" y="-1404" font-family="Arial" font-size="11.00">Hệ Thống Email</text>
</g>
<!-- uc_xuatkho&#45;&gt;a17 -->
<g id="edge110" class="edge">
<title>uc_xuatkho&#45;&gt;a17</title>
<path fill="none" stroke="#555555" stroke-dasharray="5,2" d="M920.14,-1512.9C920.14,-1499.58 920.14,-1474.5 920.14,-1474.5 920.14,-1474.5 1025.67,-1474.5 1091.21,-1474.5"/>
</g>
<!-- uc_danhmucsp -->
<g id="node30" class="node">
<title>uc_danhmucsp</title>
<ellipse fill="white" stroke="#333333" cx="838.57" cy="-1845" rx="64.8" ry="24.75"/>
<text xml:space="preserve" text-anchor="middle" x="838.57" y="-1848.05" font-family="Arial" font-size="11.00">Quản Lý Danh</text>
<text xml:space="preserve" text-anchor="middle" x="838.57" y="-1834.55" font-family="Arial" font-size="11.00">Mục Sản Phẩm</text>
</g>
<!-- uc_nhanlenh -->
<g id="node32" class="node">
<title>uc_nhanlenh</title>
<ellipse fill="white" stroke="#333333" cx="838.57" cy="-1683" rx="64.8" ry="24.75"/>
<text xml:space="preserve" text-anchor="middle" x="838.57" y="-1686.05" font-family="Arial" font-size="11.00">Nhận Lệnh</text>
<text xml:space="preserve" text-anchor="middle" x="838.57" y="-1672.55" font-family="Arial" font-size="11.00">Lắp Ráp PC</text>
</g>
<!-- uc_danhmucsp&#45;&gt;uc_nhanlenh -->
<!-- uc_danhmucsp&#45;&gt;a10 -->
<g id="edge89" class="edge">
<title>uc_danhmucsp&#45;&gt;a10</title>
<path fill="none" stroke="#555555" d="M900,-1836.75C959.08,-1836.75 1046.87,-1836.75 1098.93,-1836.75"/>
</g>
<!-- uc_kiemke&#45;&gt;uc_danhmucsp -->
<!-- uc_kiemke&#45;&gt;a9 -->
<g id="edge87" class="edge">
<title>uc_kiemke&#45;&gt;a9</title>
<path fill="none" stroke="#555555" d="M903.69,-2007C992.89,-2007 1142.14,-2007 1142.14,-2007 1142.14,-2007 1142.14,-1986.43 1142.14,-1966.03"/>
</g>
<!-- uc_tiendo -->
<g id="node33" class="node">
<title>uc_tiendo</title>
<ellipse fill="white" stroke="#333333" cx="838.57" cy="-1764" rx="64.8" ry="24.75"/>
<text xml:space="preserve" text-anchor="middle" x="838.57" y="-1767.05" font-family="Arial" font-size="11.00">Cập Nhật Tiến</text>
<text xml:space="preserve" text-anchor="middle" x="838.57" y="-1753.55" font-family="Arial" font-size="11.00">Độ Lắp Ráp</text>
</g>
<!-- uc_nhanlenh&#45;&gt;uc_tiendo -->
<!-- a11 -->
<g id="node59" class="node">
<title>a11</title>
<image xlink:href="actor_icon.png" width="40px" height="45px" preserveAspectRatio="xMinYMin meet" x="1122.14" y="-1733"/>
<text xml:space="preserve" text-anchor="start" x="1116.64" y="-1671.5" font-family="Arial" font-size="11.00">Nhân Viên</text>
<text xml:space="preserve" text-anchor="start" x="1121.52" y="-1658" font-family="Arial" font-size="11.00">Lắp Ráp</text>
</g>
<!-- uc_nhanlenh&#45;&gt;a11 -->
<g id="edge90" class="edge">
<title>uc_nhanlenh&#45;&gt;a11</title>
<path fill="none" stroke="#555555" d="M903.69,-1683C965.02,-1683 1054.73,-1683 1104.81,-1683"/>
</g>
<!-- uc_giaohang -->
<g id="node34" class="node">
<title>uc_giaohang</title>
<ellipse fill="white" stroke="#333333" cx="838.57" cy="-1440" rx="64.8" ry="24.75"/>
<text xml:space="preserve" text-anchor="middle" x="838.57" y="-1443.05" font-family="Arial" font-size="11.00">Giao Hàng &amp;</text>
<text xml:space="preserve" text-anchor="middle" x="838.57" y="-1429.55" font-family="Arial" font-size="11.00">Thu Tiền COD</text>
</g>
<!-- uc_tiendo&#45;&gt;uc_giaohang -->
<!-- uc_tiendo&#45;&gt;a11 -->
<g id="edge91" class="edge">
<title>uc_tiendo&#45;&gt;a11</title>
<path fill="none" stroke="#555555" d="M900.9,-1756.88C986.29,-1756.88 1129.14,-1756.88 1129.14,-1756.88 1129.14,-1756.88 1129.14,-1749.94 1129.14,-1740.68"/>
</g>
<!-- uc_thuhoi -->
<g id="node35" class="node">
<title>uc_thuhoi</title>
<ellipse fill="white" stroke="#333333" cx="838.57" cy="-1602" rx="74.95" ry="24.75"/>
<text xml:space="preserve" text-anchor="middle" x="838.57" y="-1605.05" font-family="Arial" font-size="11.00">Thu Hồi Hàng Bảo</text>
<text xml:space="preserve" text-anchor="middle" x="838.57" y="-1591.55" font-family="Arial" font-size="11.00">Hành / Hoàn Trả</text>
</g>
<!-- uc_giaohang&#45;&gt;uc_thuhoi -->
<!-- a12 -->
<g id="node60" class="node">
<title>a12</title>
<image xlink:href="actor_icon.png" width="40px" height="45px" preserveAspectRatio="xMinYMin meet" x="1122.14" y="-1606"/>
<text xml:space="preserve" text-anchor="start" x="1116.64" y="-1544.5" font-family="Arial" font-size="11.00">Nhân Viên</text>
<text xml:space="preserve" text-anchor="start" x="1116.27" y="-1531" font-family="Arial" font-size="11.00">Giao Hàng</text>
</g>
<!-- uc_giaohang&#45;&gt;a12 -->
<g id="edge92" class="edge">
<title>uc_giaohang&#45;&gt;a12</title>
<path fill="none" stroke="#555555" d="M900.2,-1448.25C937.59,-1448.25 978.14,-1448.25 978.14,-1448.25 978.14,-1448.25 978.14,-1532.87 978.14,-1532.87 978.14,-1532.87 1056.1,-1532.87 1104.52,-1532.87"/>
</g>
<!-- uc_giaohang&#45;&gt;a17 -->
<g id="edge111" class="edge">
<title>uc_giaohang&#45;&gt;a17</title>
<path fill="none" stroke="#555555" stroke-dasharray="5,2" d="M900,-1431.75C956.31,-1431.75 1038.7,-1431.75 1091.37,-1431.75"/>
</g>
<!-- uc_socai -->
<g id="node36" class="node">
<title>uc_socai</title>
<ellipse fill="white" stroke="#333333" cx="838.57" cy="-1116" rx="64.8" ry="24.75"/>
<text xml:space="preserve" text-anchor="middle" x="838.57" y="-1119.05" font-family="Arial" font-size="11.00">Quản Lý Sổ</text>
<text xml:space="preserve" text-anchor="middle" x="838.57" y="-1105.55" font-family="Arial" font-size="11.00">Cái Thu Chi</text>
</g>
<!-- uc_thuhoi&#45;&gt;uc_socai -->
<!-- uc_thuhoi&#45;&gt;a12 -->
<g id="edge93" class="edge">
<title>uc_thuhoi&#45;&gt;a12</title>
<path fill="none" stroke="#555555" d="M914,-1601.75C974.58,-1601.75 1057.11,-1601.75 1104.5,-1601.75"/>
</g>
<!-- uc_ttncc -->
<g id="node37" class="node">
<title>uc_ttncc</title>
<ellipse fill="white" stroke="#333333" cx="838.57" cy="-1197" rx="64.8" ry="24.75"/>
<text xml:space="preserve" text-anchor="middle" x="838.57" y="-1200.05" font-family="Arial" font-size="11.00">Thanh Toán</text>
<text xml:space="preserve" text-anchor="middle" x="838.57" y="-1186.55" font-family="Arial" font-size="11.00">Nhà Cung Cấp</text>
</g>
<!-- uc_socai&#45;&gt;uc_ttncc -->
<!-- a13 -->
<g id="node62" class="node">
<title>a13</title>
<image xlink:href="actor_icon.png" width="40px" height="45px" preserveAspectRatio="xMinYMin meet" x="1122.14" y="-1276"/>
<text xml:space="preserve" text-anchor="start" x="1116.64" y="-1214.5" font-family="Arial" font-size="11.00">Nhân Viên</text>
<text xml:space="preserve" text-anchor="start" x="1122.27" y="-1201" font-family="Arial" font-size="11.00">Kế Toán</text>
</g>
<!-- uc_socai&#45;&gt;a13 -->
<g id="edge94" class="edge">
<title>uc_socai&#45;&gt;a13</title>
<path fill="none" stroke="#555555" d="M900,-1107.75C988.71,-1107.75 1142.14,-1107.75 1142.14,-1107.75 1142.14,-1107.75 1142.14,-1153.32 1142.14,-1190.34"/>
</g>
<!-- uc_hoantien -->
<g id="node38" class="node">
<title>uc_hoantien</title>
<ellipse fill="white" stroke="#333333" cx="838.57" cy="-1278" rx="70.18" ry="24.75"/>
<text xml:space="preserve" text-anchor="middle" x="838.57" y="-1281.05" font-family="Arial" font-size="11.00">Giải Ngân Hoàn</text>
<text xml:space="preserve" text-anchor="middle" x="838.57" y="-1267.55" font-family="Arial" font-size="11.00">Tiền Khách Hàng</text>
</g>
<!-- uc_ttncc&#45;&gt;uc_hoantien -->
<!-- uc_ttncc&#45;&gt;a13 -->
<g id="edge95" class="edge">
<title>uc_ttncc&#45;&gt;a13</title>
<path fill="none" stroke="#555555" d="M899.64,-1205.87C961.1,-1205.87 1053.92,-1205.87 1105.06,-1205.87"/>
</g>
<!-- uc_luong -->
<g id="node39" class="node">
<title>uc_luong</title>
<ellipse fill="white" stroke="#333333" cx="838.57" cy="-1359" rx="72.83" ry="24.75"/>
<text xml:space="preserve" text-anchor="middle" x="838.57" y="-1362.05" font-family="Arial" font-size="11.00">Giải Ngân</text>
<text xml:space="preserve" text-anchor="middle" x="838.57" y="-1348.55" font-family="Arial" font-size="11.00">Lương Nhân Viên</text>
</g>
<!-- uc_hoantien&#45;&gt;uc_luong -->
<!-- uc_hoantien&#45;&gt;a13 -->
<g id="edge96" class="edge">
<title>uc_hoantien&#45;&gt;a13</title>
<path fill="none" stroke="#555555" d="M904.07,-1268.63C965.42,-1268.63 1054.94,-1268.63 1104.9,-1268.63"/>
</g>
<!-- uc_hosonv -->
<g id="node40" class="node">
<title>uc_hosonv</title>
<ellipse fill="white" stroke="#333333" cx="838.57" cy="-792" rx="64.88" ry="24.75"/>
<text xml:space="preserve" text-anchor="middle" x="838.57" y="-795.05" font-family="Arial" font-size="11.00">Quản Lý Hồ Sơ</text>
<text xml:space="preserve" text-anchor="middle" x="838.57" y="-781.55" font-family="Arial" font-size="11.00">Nhân Viên</text>
</g>
<!-- uc_luong&#45;&gt;uc_hosonv -->
<!-- uc_luong&#45;&gt;a13 -->
<g id="edge97" class="edge">
<title>uc_luong&#45;&gt;a13</title>
<path fill="none" stroke="#555555" d="M911.89,-1359C997.97,-1359 1129.14,-1359 1129.14,-1359 1129.14,-1359 1129.14,-1318.22 1129.14,-1283.82"/>
</g>
<!-- uc_chamcong -->
<g id="node41" class="node">
<title>uc_chamcong</title>
<ellipse fill="white" stroke="#333333" cx="838.57" cy="-873" rx="64.8" ry="24.75"/>
<text xml:space="preserve" text-anchor="middle" x="838.57" y="-876.05" font-family="Arial" font-size="11.00">Chấm Công</text>
<text xml:space="preserve" text-anchor="middle" x="838.57" y="-862.55" font-family="Arial" font-size="11.00">Hàng Ngày</text>
</g>
<!-- uc_hosonv&#45;&gt;uc_chamcong -->
<!-- a14 -->
<g id="node63" class="node">
<title>a14</title>
<image xlink:href="actor_icon.png" width="40px" height="45px" preserveAspectRatio="xMinYMin meet" x="1122.14" y="-952"/>
<text xml:space="preserve" text-anchor="start" x="1116.64" y="-890.5" font-family="Arial" font-size="11.00">Nhân Viên</text>
<text xml:space="preserve" text-anchor="start" x="1120.02" y="-877" font-family="Arial" font-size="11.00">Nhân Sự</text>
</g>
<!-- uc_hosonv&#45;&gt;a14 -->
<g id="edge98" class="edge">
<title>uc_hosonv&#45;&gt;a14</title>
<path fill="none" stroke="#555555" d="M903.78,-792C989.45,-792 1129.14,-792 1129.14,-792 1129.14,-792 1129.14,-832.17 1129.14,-866.22"/>
</g>
<!-- uc_lapluong -->
<g id="node42" class="node">
<title>uc_lapluong</title>
<ellipse fill="white" stroke="#333333" cx="838.57" cy="-954" rx="64.8" ry="24.75"/>
<text xml:space="preserve" text-anchor="middle" x="838.57" y="-957.05" font-family="Arial" font-size="11.00">Lập Bảng</text>
<text xml:space="preserve" text-anchor="middle" x="838.57" y="-943.55" font-family="Arial" font-size="11.00">Lương</text>
</g>
<!-- uc_chamcong&#45;&gt;uc_lapluong -->
<!-- uc_chamcong&#45;&gt;a14 -->
<g id="edge99" class="edge">
<title>uc_chamcong&#45;&gt;a14</title>
<path fill="none" stroke="#555555" d="M899.64,-881.87C961.1,-881.87 1053.92,-881.87 1105.06,-881.87"/>
</g>
<!-- uc_nghiphep -->
<g id="node43" class="node">
<title>uc_nghiphep</title>
<ellipse fill="white" stroke="#333333" cx="838.57" cy="-1035" rx="66.47" ry="24.75"/>
<text xml:space="preserve" text-anchor="middle" x="838.57" y="-1038.05" font-family="Arial" font-size="11.00">Duyệt / Quản Lý</text>
<text xml:space="preserve" text-anchor="middle" x="838.57" y="-1024.55" font-family="Arial" font-size="11.00">Nghỉ Phép</text>
</g>
<!-- uc_lapluong&#45;&gt;uc_nghiphep -->
<!-- uc_lapluong&#45;&gt;a14 -->
<g id="edge100" class="edge">
<title>uc_lapluong&#45;&gt;a14</title>
<path fill="none" stroke="#555555" d="M898.91,-944.63C960.29,-944.63 1053.49,-944.63 1104.87,-944.63"/>
</g>
<!-- uc_qltk -->
<g id="node44" class="node">
<title>uc_qltk</title>
<ellipse fill="white" stroke="#333333" cx="838.57" cy="-630" rx="90.86" ry="24.75"/>
<text xml:space="preserve" text-anchor="middle" x="838.57" y="-633.05" font-family="Arial" font-size="11.00">Quản Trị Tài Khoản,</text>
<text xml:space="preserve" text-anchor="middle" x="838.57" y="-619.55" font-family="Arial" font-size="11.00">Phân Quyền &amp; Nhật Ký</text>
</g>
<!-- uc_nghiphep&#45;&gt;uc_qltk -->
<!-- uc_nghiphep&#45;&gt;a14 -->
<g id="edge101" class="edge">
<title>uc_nghiphep&#45;&gt;a14</title>
<path fill="none" stroke="#555555" d="M901.73,-1043.25C985.56,-1043.25 1123.14,-1043.25 1123.14,-1043.25 1123.14,-1043.25 1123.14,-997.03 1123.14,-959.66"/>
</g>
<!-- uc_backup -->
<g id="node45" class="node">
<title>uc_backup</title>
<ellipse fill="white" stroke="#333333" cx="838.57" cy="-711" rx="68.06" ry="24.75"/>
<text xml:space="preserve" text-anchor="middle" x="838.57" y="-714.05" font-family="Arial" font-size="11.00">Sao Lưu &amp; Phục</text>
<text xml:space="preserve" text-anchor="middle" x="838.57" y="-700.55" font-family="Arial" font-size="11.00">Hồi Dữ Liệu</text>
</g>
<!-- uc_qltk&#45;&gt;uc_backup -->
<!-- a15 -->
<g id="node64" class="node">
<title>a15</title>
<image xlink:href="actor_icon.png" width="40px" height="45px" preserveAspectRatio="xMinYMin meet" x="1122.14" y="-702.25"/>
<text xml:space="preserve" text-anchor="start" x="1109.14" y="-640.75" font-family="Arial" font-size="11.00">Quản Trị Viên</text>
</g>
<!-- uc_qltk&#45;&gt;a15 -->
<g id="edge102" class="edge">
<title>uc_qltk&#45;&gt;a15</title>
<path fill="none" stroke="#555555" d="M918.33,-642.25C975.42,-642.25 1050.22,-642.25 1097.23,-642.25"/>
</g>
<!-- uc_duyetpo -->
<g id="node46" class="node">
<title>uc_duyetpo</title>
<ellipse fill="white" stroke="#333333" cx="838.57" cy="-549" rx="65.94" ry="24.75"/>
<text xml:space="preserve" text-anchor="middle" x="838.57" y="-552.05" font-family="Arial" font-size="11.00">Duyệt Đơn Mua</text>
<text xml:space="preserve" text-anchor="middle" x="838.57" y="-538.55" font-family="Arial" font-size="11.00">Hàng (PO)</text>
</g>
<!-- uc_backup&#45;&gt;uc_duyetpo -->
<!-- uc_backup&#45;&gt;a15 -->
<g id="edge103" class="edge">
<title>uc_backup&#45;&gt;a15</title>
<path fill="none" stroke="#555555" d="M902.58,-702.25C961.03,-702.25 1045.94,-702.25 1097.4,-702.25"/>
</g>
<!-- uc_duyetluong -->
<g id="node47" class="node">
<title>uc_duyetluong</title>
<ellipse fill="white" stroke="#333333" cx="838.57" cy="-387" rx="77.07" ry="24.75"/>
<text xml:space="preserve" text-anchor="middle" x="838.57" y="-390.05" font-family="Arial" font-size="11.00">Duyệt Bảng Lương</text>
<text xml:space="preserve" text-anchor="middle" x="838.57" y="-376.55" font-family="Arial" font-size="11.00">Toàn Công Ty</text>
</g>
<!-- uc_duyetpo&#45;&gt;uc_duyetluong -->
<!-- a16 -->
<g id="node65" class="node">
<title>a16</title>
<image xlink:href="actor_icon.png" width="40px" height="45px" preserveAspectRatio="xMinYMin meet" x="1122.14" y="-500.25"/>
<text xml:space="preserve" text-anchor="start" x="1106.89" y="-438.75" font-family="Arial" font-size="11.00">Ban Giám Đốc</text>
</g>
<!-- uc_duyetpo&#45;&gt;a16 -->
<g id="edge104" class="edge">
<title>uc_duyetpo&#45;&gt;a16</title>
<path fill="none" stroke="#555555" d="M904.77,-549C989.97,-549 1127.14,-549 1127.14,-549 1127.14,-549 1127.14,-528.43 1127.14,-508.03"/>
</g>
<!-- uc_dashboard -->
<g id="node48" class="node">
<title>uc_dashboard</title>
<ellipse fill="white" stroke="#333333" cx="838.57" cy="-468" rx="83.97" ry="24.75"/>
<text xml:space="preserve" text-anchor="middle" x="838.57" y="-471.05" font-family="Arial" font-size="11.00">Xem Báo Cáo &amp;</text>
<text xml:space="preserve" text-anchor="middle" x="838.57" y="-457.55" font-family="Arial" font-size="11.00">Dashboard Tổng Thể</text>
</g>
<!-- uc_duyetluong&#45;&gt;uc_dashboard -->
<!-- uc_duyetluong&#45;&gt;a16 -->
<g id="edge105" class="edge">
<title>uc_duyetluong&#45;&gt;a16</title>
<path fill="none" stroke="#555555" d="M911.78,-378.75C989.16,-378.75 1100.14,-378.75 1100.14,-378.75 1100.14,-378.75 1100.14,-404.12 1100.14,-427.81"/>
</g>
<!-- uc_dashboard&#45;&gt;a16 -->
<g id="edge106" class="edge">
<title>uc_dashboard&#45;&gt;a16</title>
<path fill="none" stroke="#555555" d="M922.73,-468C978.35,-468 1049.21,-468 1095.11,-468"/>
</g>
<!-- a1 -->
<g id="node49" class="node">
<title>a1</title>
<image xlink:href="actor_icon.png" width="40px" height="45px" preserveAspectRatio="xMinYMin meet" x="97.3" y="-1743.25"/>
<text xml:space="preserve" text-anchor="start" x="79.05" y="-1681.75" font-family="Arial" font-size="11.00">Khách Vãng Lai</text>
</g>
<!-- a1&#45;&gt;uc_xemsp -->
<g id="edge63" class="edge">
<title>a1&#45;&gt;uc_xemsp</title>
<path fill="none" stroke="#555555" d="M167.47,-1683.25C236.38,-1683.25 360,-1683.25 432.32,-1683.25"/>
</g>
<!-- a1&#45;&gt;uc_dangky -->
<g id="edge64" class="edge">
<title>a1&#45;&gt;uc_dangky</title>
<path fill="none" stroke="#555555" d="M167.47,-1739.25C236.58,-1739.25 360.71,-1739.25 432.95,-1739.25"/>
</g>
<!-- a1&#45;&gt;uc_buildpc -->
<g id="edge65" class="edge">
<title>a1&#45;&gt;uc_buildpc</title>
<path fill="none" stroke="#555555" d="M117.14,-1750.95C117.14,-1786.53 117.14,-1833 117.14,-1833 117.14,-1833 317.32,-1833 424.05,-1833"/>
</g>
<!-- a2 -->
<g id="node50" class="node">
<title>a2</title>
<image xlink:href="actor_icon.png" width="40px" height="45px" preserveAspectRatio="xMinYMin meet" x="97.3" y="-1348"/>
<text xml:space="preserve" text-anchor="start" x="87.3" y="-1286.5" font-family="Arial" font-size="11.00">Khách Hàng</text>
<text xml:space="preserve" text-anchor="start" x="85.8" y="-1273" font-family="Arial" font-size="11.00">(Thành Viên)</text>
</g>
<!-- a1&#45;&gt;a2 -->
<!-- a2&#45;&gt;uc_dathang -->
<g id="edge66" class="edge">
<title>a2&#45;&gt;uc_dathang</title>
<path fill="none" stroke="#555555" d="M160.7,-1276C226.06,-1276 350.11,-1276 425.69,-1276"/>
</g>
<!-- a2&#45;&gt;uc_suahuy -->
<g id="edge67" class="edge">
<title>a2&#45;&gt;uc_suahuy</title>
<path fill="none" stroke="#555555" d="M160.7,-1339.13C218.39,-1339.13 321.82,-1339.13 397.27,-1339.13"/>
</g>
<!-- a2&#45;&gt;uc_thanhtoan -->
<g id="edge68" class="edge">
<title>a2&#45;&gt;uc_thanhtoan</title>
<path fill="none" stroke="#555555" d="M146.14,-1355.69C146.14,-1389.03 146.14,-1428 146.14,-1428 146.14,-1428 315.79,-1428 416.52,-1428"/>
</g>
<!-- a2&#45;&gt;uc_theodoi -->
<g id="edge69" class="edge">
<title>a2&#45;&gt;uc_theodoi</title>
<path fill="none" stroke="#555555" d="M132.14,-1355.89C132.14,-1415.01 132.14,-1509 132.14,-1509 132.14,-1509 321.19,-1509 424.2,-1509"/>
</g>
<!-- a2&#45;&gt;uc_hoso -->
<g id="edge70" class="edge">
<title>a2&#45;&gt;uc_hoso</title>
<path fill="none" stroke="#555555" d="M117.14,-1355.72C117.14,-1435.62 117.14,-1590 117.14,-1590 117.14,-1590 317.32,-1590 424.05,-1590"/>
</g>
<!-- a2&#45;&gt;uc_danhgia -->
<g id="edge71" class="edge">
<title>a2&#45;&gt;uc_danhgia</title>
<path fill="none" stroke="#555555" d="M103.14,-1262.21C103.14,-1183.95 103.14,-1035 103.14,-1035 103.14,-1035 314.18,-1035 424.23,-1035"/>
</g>
<!-- a2&#45;&gt;uc_khieunai -->
<g id="edge72" class="edge">
<title>a2&#45;&gt;uc_khieunai</title>
<path fill="none" stroke="#555555" d="M117.14,-1262.28C117.14,-1205.16 117.14,-1116 117.14,-1116 117.14,-1116 317.32,-1116 424.05,-1116"/>
</g>
<!-- a2&#45;&gt;uc_chatkh -->
<g id="edge73" class="edge">
<title>a2&#45;&gt;uc_chatkh</title>
<path fill="none" stroke="#555555" d="M132.14,-1262.28C132.14,-1234.75 132.14,-1205.25 132.14,-1205.25 132.14,-1205.25 325.79,-1205.25 427.9,-1205.25"/>
</g>
<!-- a2&#45;&gt;a1 -->
<g id="edge112" class="edge">
<title>a2&#45;&gt;a1</title>
<path fill="none" stroke="#555555" d="M88.14,-1355.9C88.14,-1435.64 88.14,-1596.24 88.14,-1671.01"/>
</g>
<!-- a6 -->
<g id="node51" class="node">
<title>a6</title>
<image xlink:href="actor_icon.png" width="40px" height="45px" preserveAspectRatio="xMinYMin meet" x="97.3" y="-928.25"/>
<text xml:space="preserve" text-anchor="start" x="74.55" y="-866.75" font-family="Arial" font-size="11.00">Nhân Viên CSKH</text>
</g>
<!-- a2&#45;&gt;a6 -->
<!-- a6&#45;&gt;uc_chat -->
<g id="edge74" class="edge">
<title>a6&#45;&gt;uc_chat</title>
<path fill="none" stroke="#555555" d="M146.14,-936.12C146.14,-944.28 146.14,-950.42 146.14,-950.42 146.14,-950.42 325.35,-950.42 424.75,-950.42"/>
</g>
<!-- a6&#45;&gt;uc_xlkhieunai -->
<g id="edge75" class="edge">
<title>a6&#45;&gt;uc_xlkhieunai</title>
<path fill="none" stroke="#555555" d="M171.79,-876.75C239.09,-876.75 353.43,-876.75 424.97,-876.75"/>
</g>
<!-- a3 -->
<g id="node52" class="node">
<title>a3</title>
<image xlink:href="actor_icon.png" width="40px" height="45px" preserveAspectRatio="xMinYMin meet" x="97.3" y="-801.25"/>
<text xml:space="preserve" text-anchor="start" x="80.92" y="-739.75" font-family="Arial" font-size="11.00">Nhà Cung Cấp</text>
</g>
<!-- a6&#45;&gt;a3 -->
<!-- a3&#45;&gt;uc_phanhoi -->
<g id="edge76" class="edge">
<title>a3&#45;&gt;uc_phanhoi</title>
<path fill="none" stroke="#555555" d="M165.55,-788.25C231.8,-788.25 351.1,-788.25 424.91,-788.25"/>
</g>
<!-- a3&#45;&gt;uc_xacnhanpo -->
<g id="edge77" class="edge">
<title>a3&#45;&gt;uc_xacnhanpo</title>
<path fill="none" stroke="#555555" d="M160.14,-729.01C160.14,-717.26 160.14,-707.5 160.14,-707.5 160.14,-707.5 328.34,-707.5 424.27,-707.5"/>
</g>
<!-- a4 -->
<g id="node53" class="node">
<title>a4</title>
<image xlink:href="actor_icon.png" width="40px" height="45px" preserveAspectRatio="xMinYMin meet" x="97.3" y="-651"/>
<text xml:space="preserve" text-anchor="start" x="91.8" y="-589.5" font-family="Arial" font-size="11.00">Nhân Viên</text>
<text xml:space="preserve" text-anchor="start" x="92.92" y="-576" font-family="Arial" font-size="11.00">Bán Hàng</text>
</g>
<!-- a3&#45;&gt;a4 -->
<!-- a4&#45;&gt;uc_pos -->
<g id="edge78" class="edge">
<title>a4&#45;&gt;uc_pos</title>
<path fill="none" stroke="#555555" d="M154.67,-630C217.78,-630 346.19,-630 424.31,-630"/>
</g>
<!-- a4&#45;&gt;uc_xldonhang -->
<g id="edge79" class="edge">
<title>a4&#45;&gt;uc_xldonhang</title>
<path fill="none" stroke="#555555" d="M154.67,-569.37C223.76,-569.37 371.15,-569.37 445.08,-569.37"/>
</g>
<!-- a5 -->
<g id="node54" class="node">
<title>a5</title>
<image xlink:href="actor_icon.png" width="40px" height="45px" preserveAspectRatio="xMinYMin meet" x="97.3" y="-507"/>
<text xml:space="preserve" text-anchor="start" x="97.05" y="-445.5" font-family="Arial" font-size="11.00">Quản Lý</text>
<text xml:space="preserve" text-anchor="start" x="92.92" y="-432" font-family="Arial" font-size="11.00">Bán Hàng</text>
</g>
<!-- a4&#45;&gt;a5 -->
<!-- a5&#45;&gt;uc_duyethuy -->
<g id="edge80" class="edge">
<title>a5&#45;&gt;uc_duyethuy</title>
<path fill="none" stroke="#555555" d="M153.65,-468C216.35,-468 345.68,-468 424.23,-468"/>
</g>
<!-- a5&#45;&gt;a4 -->
<g id="edge114" class="edge">
<title>a5&#45;&gt;a4</title>
<path fill="none" stroke="#555555" d="M105.14,-514.75C105.14,-531.01 105.14,-549.24 105.14,-565.48"/>
</g>
<!-- a7 -->
<g id="node55" class="node">
<title>a7</title>
<image xlink:href="actor_icon.png" width="40px" height="45px" preserveAspectRatio="xMinYMin meet" x="97.3" y="-345"/>
<text xml:space="preserve" text-anchor="start" x="91.8" y="-283.5" font-family="Arial" font-size="11.00">Nhân Viên</text>
<text xml:space="preserve" text-anchor="start" x="92.17" y="-270" font-family="Arial" font-size="11.00">Mua Hàng</text>
</g>
<!-- a5&#45;&gt;a7 -->
<!-- a7&#45;&gt;uc_qlncc -->
<g id="edge81" class="edge">
<title>a7&#45;&gt;uc_qlncc</title>
<path fill="none" stroke="#555555" d="M154.74,-266.42C235.76,-266.42 420.14,-266.42 420.14,-266.42 420.14,-266.42 420.14,-248.15 420.14,-235.88"/>
</g>
<!-- a7&#45;&gt;uc_rfq -->
<g id="edge82" class="edge">
<title>a7&#45;&gt;uc_rfq</title>
<path fill="none" stroke="#555555" d="M154.67,-306C217.78,-306 346.19,-306 424.31,-306"/>
</g>
<!-- a7&#45;&gt;uc_taopo -->
<g id="edge83" class="edge">
<title>a7&#45;&gt;uc_taopo</title>
<path fill="none" stroke="#555555" d="M129.14,-352.65C129.14,-370.65 129.14,-387 129.14,-387 129.14,-387 320.29,-387 424.08,-387"/>
</g>
<!-- a8 -->
<g id="node56" class="node">
<title>a8</title>
<image xlink:href="actor_icon.png" width="40px" height="45px" preserveAspectRatio="xMinYMin meet" x="97.3" y="-176.25"/>
<text xml:space="preserve" text-anchor="start" x="82.05" y="-114.75" font-family="Arial" font-size="11.00">Nhân Viên QC</text>
</g>
<!-- a7&#45;&gt;a8 -->
<!-- a8&#45;&gt;uc_qa -->
<g id="edge84" class="edge">
<title>a8&#45;&gt;uc_qa</title>
<path fill="none" stroke="#555555" d="M164.41,-144C221.99,-144 320.82,-144 394.39,-144"/>
</g>
<!-- a8&#45;&gt;uc_qctra -->
<g id="edge85" class="edge">
<title>a8&#45;&gt;uc_qctra</title>
<path fill="none" stroke="#555555" d="M117.14,-104.06C117.14,-90.99 117.14,-79.77 117.14,-79.77 117.14,-79.77 339.77,-79.77 440.64,-79.77"/>
</g>
<!-- a9&#45;&gt;a10 -->
<!-- a10&#45;&gt;a9 -->
<g id="edge113" class="edge">
<title>a10&#45;&gt;a9</title>
<path fill="none" stroke="#555555" d="M1156.14,-1853.16C1156.14,-1863.82 1156.14,-1875.32 1156.14,-1885.97"/>
</g>
<!-- a10&#45;&gt;a11 -->
<!-- a11&#45;&gt;a12 -->
<!-- a12&#45;&gt;a17 -->
<!-- a17&#45;&gt;a13 -->
<!-- a13&#45;&gt;a14 -->
<!-- a14&#45;&gt;a15 -->
<!-- a15&#45;&gt;a16 -->
<!-- a16&#45;&gt;a18 -->
<!-- note_nhanvien -->
<g id="node67" class="node">
<title>note_nhanvien</title>
<polygon fill="#fffde7" stroke="#999999" points="228.6,-2034.05 0,-2034.05 0,-1959.95 234.6,-1959.95 234.6,-2028.05 228.6,-2034.05"/>
<polyline fill="none" stroke="#999999" points="228.6,-2034.05 228.6,-2028.05"/>
<polyline fill="none" stroke="#999999" points="234.6,-2028.05 228.6,-2028.05"/>
<text xml:space="preserve" text-anchor="middle" x="117.3" y="-2014.7" font-family="Arial" font-size="9.00">«Kế Thừa»: Nhân Viên là actor cha của toàn bộ</text>
<text xml:space="preserve" text-anchor="middle" x="117.3" y="-2004.2" font-family="Arial" font-size="9.00">nhân viên nội bộ (Bán Hàng, CSKH, Mua Hàng, QC,</text>
<text xml:space="preserve" text-anchor="middle" x="117.3" y="-1993.7" font-family="Arial" font-size="9.00">Kho, Lắp Ráp, Giao Hàng, Kế Toán, Nhân Sự,</text>
<text xml:space="preserve" text-anchor="middle" x="117.3" y="-1983.2" font-family="Arial" font-size="9.00">Quản Trị Viên, Ban Giám Đốc) — mỗi vai trò có thêm</text>
<text xml:space="preserve" text-anchor="middle" x="117.3" y="-1972.7" font-family="Arial" font-size="9.00">quyền riêng ngoài 3 chức năng chung ở trên.</text>
</g>
<!-- a18&#45;&gt;note_nhanvien -->
<g id="edge115" class="edge">
<title>a18&#45;&gt;note_nhanvien</title>
<path fill="none" stroke="#555555" stroke-dasharray="5,2" d="M1104.86,-273.83C929.04,-273.83 191.14,-273.83 191.14,-273.83 191.14,-273.83 191.14,-1708.95 191.14,-1959.81"/>
</g>
<!-- note_login -->
<g id="node68" class="node">
<title>note_login</title>
<polygon fill="#fffde7" stroke="#999999" points="224.47,-71.8 4.12,-71.8 4.12,-8.2 230.47,-8.2 230.47,-65.8 224.47,-71.8"/>
<polyline fill="none" stroke="#999999" points="224.47,-71.8 224.47,-65.8"/>
<polyline fill="none" stroke="#999999" points="230.47,-65.8 224.47,-65.8"/>
<text xml:space="preserve" text-anchor="middle" x="117.3" y="-52.45" font-family="Arial" font-size="9.00">Phải đăng nhập thành công mới dùng được các</text>
<text xml:space="preserve" text-anchor="middle" x="117.3" y="-41.95" font-family="Arial" font-size="9.00">chức năng trong hệ thống (trừ 3 chức năng công</text>
<text xml:space="preserve" text-anchor="middle" x="117.3" y="-31.45" font-family="Arial" font-size="9.00">khai của Khách Vãng Lai) — vì vậy không vẽ riêng</text>
<text xml:space="preserve" text-anchor="middle" x="117.3" y="-20.95" font-family="Arial" font-size="9.00">&quot;Đăng Nhập&quot; thành 1 use case.</text>
</g>
<!-- note_login&#45;&gt;uc_xemsp -->
<g id="edge116" class="edge">
<title>note_login&#45;&gt;uc_xemsp</title>
<path fill="none" stroke="#555555" stroke-dasharray="5,2" d="M211.14,-71.97C211.14,-298.99 211.14,-1658.5 211.14,-1658.5 211.14,-1658.5 289.19,-1658.5 362.6,-1658.5"/>
</g>
</g>
</svg>
